<svg xmlns="http://www.w3.org/2000/svg" viewBox="0 0 100 100">
  <defs>
    <linearGradient id="gradient" x1="0%" y1="0%" x2="100%" y2="100%">
      <stop offset="0%" style="stop-color:#6366f1"/>
      <stop offset="100%" style="stop-color:#d946ef"/>
    </linearGradient>
  </defs>
  <rect width="100" height="100" rx="20" fill="url(#gradient)"/>
  <path d="M50 20 C35 20 25 35 25 50 C25 65 35 75 45 75 L45 60 C40 60 35 55 35 50 C35 40 42 35 50 35 C58 35 65 40 65 50 C65 60 55 65 50 65 L50 80 C65 80 75 65 75 50 C75 35 65 20 50 20" fill="white"/>
  <circle cx="60" cy="45" r="8" fill="white"/>
</svg>
